<svg xmlns="http://www.w3.org/2000/svg" id="_02_Web_development" data-name="02 Web development" width="58.843" height="58.844" viewBox="0 0 58.843 58.844"><path id="Path_287" data-name="Path 287" d="M44.13,31.3a2.728,2.728,0,1,0,2.727,2.727A2.731,2.731,0,0,0,44.13,31.3Zm0,3.714a.987.987,0,1,1,.986-.987A.988.988,0,0,1,44.13,35.019Zm0,0" transform="translate(-36.644 -27.707)" fill="#d6cfff"></path><path id="Path_288" data-name="Path 288" d="M107.751,31.3a2.728,2.728,0,1,0,2.727,2.728A2.731,2.731,0,0,0,107.751,31.3Zm0,3.714a.987.987,0,1,1,.986-.987A.988.988,0,0,1,107.751,35.019Zm0,0" transform="translate(-92.953 -27.707)" fill="#d6cfff"></path><path id="Path_289" data-name="Path 289" d="M171.376,31.3a2.728,2.728,0,1,0,2.727,2.728A2.731,2.731,0,0,0,171.376,31.3Zm0,3.714a.987.987,0,1,1,.987-.987A.987.987,0,0,1,171.376,35.019Zm0,0" transform="translate(-149.266 -27.707)" fill="#d6cfff"></path><path id="Path_290" data-name="Path 290" d="M55.652,0H3.192A3.2,3.2,0,0,0,0,3.192V41.608A3.2,3.2,0,0,0,3.192,44.8H8.807a.87.87,0,0,0,.071,1.15l4.182,4.182a17.846,17.846,0,0,0-.821,1.979H6.325a.87.87,0,0,0-.87.87v4.991a.87.87,0,0,0,.87.87H23.5a.87.87,0,0,0,.87-.87,4.816,4.816,0,1,1,9.633,0,.87.87,0,0,0,.87.87H52.054a.87.87,0,0,0,.87-.87V52.982a.87.87,0,0,0-.87-.87H46.14a17.844,17.844,0,0,0-.821-1.979L49.5,45.95a.871.871,0,0,0,.07-1.15h6.08a3.2,3.2,0,0,0,3.192-3.192V20.074a.87.87,0,1,0-1.741,0V41.608a1.452,1.452,0,0,1-1.451,1.451h-7.81l-5.13-5.13V31.975a.871.871,0,0,0-.87-.87H40.273V25.74L41.5,24.606a.87.87,0,0,0,.241-.9l-2.089-6.731a.871.871,0,0,0-.831-.612H36.5a.871.871,0,0,0-.831.612l-2.089,6.731a.87.87,0,0,0,.241.9L35.05,25.74V31.1H33.484a.87.87,0,0,0-.87.87v2.263H25.765V32.916l3.343-3.343a.87.87,0,0,0,.255-.615V21.819A.87.87,0,0,0,29.1,21.2l-4.642-4.585a.871.871,0,0,0-1.482.619v7.76L20.717,26.42l-2.263-1.425v-.5a.87.87,0,1,0-1.741,0v.976a.87.87,0,0,0,.407.737l3.134,1.973a.869.869,0,0,0,.928,0l3.134-1.973a.87.87,0,0,0,.407-.737V19.318l2.9,2.865V28.6l-3.343,3.343a.87.87,0,0,0-.255.616v1.7a.871.871,0,0,0-.7.853v5.914a17.849,17.849,0,0,0-1.98.821L17.409,37.9V32.555a.87.87,0,0,0-.255-.616L13.811,28.6V22.183l2.9-2.865v1.1a.87.87,0,0,0,1.741,0V17.235a.871.871,0,0,0-1.482-.62L12.329,21.2a.87.87,0,0,0-.259.619v7.138a.87.87,0,0,0,.255.615l3.343,3.343v5.012l-5.13,5.13H3.192a1.452,1.452,0,0,1-1.451-1.451V12.651H57.1v8.368a.87.87,0,0,0,1.741,0V3.192A3.2,3.2,0,0,0,55.652,0ZM36.511,24.72l-1.1-1.02,1.736-5.594h1.038L39.917,23.7l-1.1,1.02a.871.871,0,0,0-.28.64V31.1H36.792V25.36A.872.872,0,0,0,36.511,24.72Zm4.458,8.125V37.9L37.03,41.843a17.94,17.94,0,0,0-1.98-.821V35.109a.871.871,0,0,0-.7-.853v-1.41H40.97ZM21.59,43.674a16.122,16.122,0,0,1,2.863-1.187.871.871,0,0,0,.616-.833V35.979h8.24v5.675a.871.871,0,0,0,.616.833,16.122,16.122,0,0,1,2.863,1.187.871.871,0,0,0,1.025-.153l4.014-4.014,5.037,5.037h0l.789.789-4.014,4.014a.871.871,0,0,0-.153,1.025,16.1,16.1,0,0,1,1.187,2.863.871.871,0,0,0,.832.616h5.675V57.1h-8.85a13.18,13.18,0,0,0-18.5-11.168.871.871,0,0,0,.708,1.591A11.439,11.439,0,0,1,40.589,57.1h-4.9a6.558,6.558,0,0,0-13,0h-4.9a11.309,11.309,0,0,1,3.582-7.47.87.87,0,0,0-1.191-1.27,13.229,13.229,0,0,0-4.134,8.74H7.2v-3.25h5.675a.871.871,0,0,0,.833-.616,16.094,16.094,0,0,1,1.187-2.863.871.871,0,0,0-.153-1.025l-4.014-4.014.789-.789h0l5.037-5.037,4.014,4.014A.871.871,0,0,0,21.59,43.674ZM1.741,10.91V3.192A1.452,1.452,0,0,1,3.192,1.741h52.46A1.452,1.452,0,0,1,57.1,3.192V10.91Zm0,0" fill="#d6cfff"></path></svg>