<svg xmlns="http://www.w3.org/2000/svg" id="_003-browser-2" data-name="003-browser-2" width="56.031" height="56.031" viewBox="0 0 56.031 56.031"><g id="Group_207" data-name="Group 207" fill="#2c2633"><g id="Group_206" data-name="Group 206" fill="#2c2633"><path id="Path_158" data-name="Path 158" d="M51.829,0H4.2A4.208,4.208,0,0,0,0,4.2V51.829a4.208,4.208,0,0,0,4.2,4.2H51.829a4.208,4.208,0,0,0,4.2-4.2V4.2A4.207,4.207,0,0,0,51.829,0Zm2.335,51.829a2.337,2.337,0,0,1-2.335,2.335H4.2a2.337,2.337,0,0,1-2.335-2.335V4.2A2.337,2.337,0,0,1,4.2,1.868H51.829A2.337,2.337,0,0,1,54.163,4.2Z" fill="#d6cfff"></path></g></g><g id="Group_209" data-name="Group 209" transform="translate(3.735 3.735)" fill="#2c2633"><g id="Group_208" data-name="Group 208" fill="#2c2633"><path id="Path_159" data-name="Path 159" d="M38.8,34.133H35.068a.934.934,0,0,0-.934.934V38.8a.934.934,0,0,0,.934.934H38.8a.934.934,0,0,0,.934-.934V35.067A.934.934,0,0,0,38.8,34.133Zm-.934,3.735H36V36h1.868Z" transform="translate(-34.134 -34.133)" fill="#d6cfff"></path></g></g><g id="Group_211" data-name="Group 211" transform="translate(11.206 3.735)" fill="#2c2633"><g id="Group_210" data-name="Group 210" fill="#2c2633"><path id="Path_160" data-name="Path 160" d="M107.07,34.133h-3.735a.934.934,0,0,0-.934.934V38.8a.934.934,0,0,0,.934.934h3.735A.934.934,0,0,0,108,38.8V35.067A.934.934,0,0,0,107.07,34.133Zm-.934,3.735h-1.868V36h1.868Z" transform="translate(-102.401 -34.133)" fill="#d6cfff"></path></g></g><g id="Group_213" data-name="Group 213" transform="translate(18.677 3.735)" fill="#2c2633"><g id="Group_212" data-name="Group 212" fill="#2c2633"><path id="Path_161" data-name="Path 161" d="M175.336,34.133H171.6a.934.934,0,0,0-.934.934V38.8a.934.934,0,0,0,.934.934h3.735a.934.934,0,0,0,.934-.934V35.067A.933.933,0,0,0,175.336,34.133Zm-.934,3.735h-1.868V36H174.4Z" transform="translate(-170.667 -34.133)" fill="#d6cfff"></path></g></g><g id="Group_215" data-name="Group 215" fill="#2c2633"><g id="Group_214" data-name="Group 214" fill="#2c2633"><path id="Path_162" data-name="Path 162" d="M51.829,0H4.2A4.208,4.208,0,0,0,0,4.2V12.14a.934.934,0,0,0,.934.934H55.1a.934.934,0,0,0,.934-.934V4.2A4.207,4.207,0,0,0,51.829,0Zm2.335,11.206H1.868v-7A2.337,2.337,0,0,1,4.2,1.868H51.829A2.337,2.337,0,0,1,54.163,4.2Z" fill="#d6cfff"></path></g></g><g id="Group_217" data-name="Group 217" transform="translate(26.148 11.206)" fill="#2c2633"><g id="Group_216" data-name="Group 216" fill="#2c2633"><path id="Path_163" data-name="Path 163" d="M267.883,102.4H239.868a.934.934,0,0,0-.934.934v42.957a.934.934,0,0,0,.934.934h24.926a4.028,4.028,0,0,0,4.023-4.023V103.334A.934.934,0,0,0,267.883,102.4Zm-.934,40.8a2.158,2.158,0,0,1-2.155,2.155H240.8v-41.09h26.148Z" transform="translate(-238.934 -102.4)" fill="#d6cfff"></path></g></g><g id="Group_219" data-name="Group 219" transform="translate(34.553 45.759)" fill="#2c2633"><g id="Group_218" data-name="Group 218" fill="#2c2633"><path id="Path_164" data-name="Path 164" d="M326.005,418.133h-7.471a2.8,2.8,0,0,0,0,5.6h7.471a2.8,2.8,0,1,0,0-5.6Zm0,3.736h-7.471a.934.934,0,0,1,0-1.868h7.471a.934.934,0,1,1,0,1.868Z" transform="translate(-315.733 -418.133)" fill="#d6cfff"></path></g></g><g id="Group_221" data-name="Group 221" transform="translate(30.817 15.876)" fill="#2c2633"><g id="Group_220" data-name="Group 220" fill="#2c2633"><path id="Path_165" data-name="Path 165" d="M301.211,145.067H282.534a.934.934,0,0,0-.934.934v11.206a.934.934,0,0,0,.934.934h18.677a.934.934,0,0,0,.934-.934V146A.934.934,0,0,0,301.211,145.067Zm-.934,11.206H283.468v-9.339h16.809Z" transform="translate(-281.6 -145.067)" fill="#d6cfff"></path></g></g><g id="Group_223" data-name="Group 223" transform="translate(4.669 21.483)" fill="#2c2633"><g id="Group_222" data-name="Group 222" fill="#2c2633"><path id="Path_166" data-name="Path 166" d="M58.6,198.976a9.487,9.487,0,0,0-13.192,0,9.021,9.021,0,0,0-.037,12.919l5.943,6.516a.934.934,0,0,0,1.38,0l5.925-6.5a9.024,9.024,0,0,0-.02-12.939ZM57.3,210.6c-.013.012-.025.025-.037.038l-5.253,5.76-5.29-5.8a7.157,7.157,0,0,1,0-10.287,7.613,7.613,0,0,1,10.58,0,7.157,7.157,0,0,1,0,10.287Z" transform="translate(-42.667 -196.308)" fill="#d6cfff"></path></g></g><g id="Group_225" data-name="Group 225" transform="translate(10.272 26.148)" fill="#2c2633"><g id="Group_224" data-name="Group 224" fill="#2c2633"><path id="Path_167" data-name="Path 167" d="M97.6,238.933a3.735,3.735,0,1,0,3.735,3.735A3.739,3.739,0,0,0,97.6,238.933Zm0,5.6a1.868,1.868,0,1,1,1.868-1.868A1.87,1.87,0,0,1,97.6,244.536Z" transform="translate(-93.867 -238.933)" fill="#d6cfff"></path></g></g><g id="Group_227" data-name="Group 227" transform="translate(30.817 30.817)" fill="#2c2633"><g id="Group_226" data-name="Group 226" fill="#2c2633"><path id="Path_168" data-name="Path 168" d="M301.211,281.6H282.534a.934.934,0,0,0-.934.934v3.735a.933.933,0,0,0,.934.934h18.677a.934.934,0,0,0,.934-.934v-3.735A.934.934,0,0,0,301.211,281.6Zm-.934,3.735H283.468v-1.868h16.809Z" transform="translate(-281.6 -281.6)" fill="#d6cfff"></path></g></g><g id="Group_229" data-name="Group 229" transform="translate(30.817 38.288)" fill="#2c2633"><g id="Group_228" data-name="Group 228" fill="#2c2633"><path id="Path_169" data-name="Path 169" d="M301.211,349.867H282.534a.933.933,0,0,0-.934.934v3.735a.934.934,0,0,0,.934.934h18.677a.934.934,0,0,0,.934-.934V350.8A.933.933,0,0,0,301.211,349.867Zm-.934,3.735H283.468v-1.868h16.809Z" transform="translate(-281.6 -349.867)" fill="#d6cfff"></path></g></g></svg>