<svg xmlns="http://www.w3.org/2000/svg" id="_01_Web_design" data-name="01 Web design" width="60" height="60" viewBox="0 0 60 60"><path id="Path_254" data-name="Path 254" d="M307.172,346a1.172,1.172,0,1,0,1.172,1.172A1.172,1.172,0,0,0,307.172,346Zm0,0" transform="translate(-270.141 -305.453)" fill="#d6cfff"></path><path id="Path_255" data-name="Path 255" d="M54.141,0H5.859A5.866,5.866,0,0,0,0,5.859V41.719a5.866,5.866,0,0,0,5.859,5.859H24.141v5.391H22.969a5.861,5.861,0,0,0-5.859,5.859A1.172,1.172,0,0,0,18.281,60H41.719a1.172,1.172,0,0,0,1.172-1.172,5.866,5.866,0,0,0-5.859-5.859H35.859V47.578H54.141A5.866,5.866,0,0,0,60,41.719V5.859A5.866,5.866,0,0,0,54.141,0ZM5.859,2.344H54.141a3.519,3.519,0,0,1,3.516,3.516v30H52.266V8.906a1.172,1.172,0,0,0-1.172-1.172H41.719a1.172,1.172,0,0,0-1.172,1.172V35.859H34.681c-.012-1.212-.044-2.407-.094-3.566a75.377,75.377,0,0,0-.916-9.376,5.86,5.86,0,0,0,1.6-7.643L31.209,8.239a1.172,1.172,0,0,0-2.03,0l-4.064,7.035a5.859,5.859,0,0,0,1.29,7.4,74.39,74.39,0,0,0-.988,9.621c-.053,1.171-.086,2.367-.1,3.568H19.453V18.281a1.166,1.166,0,0,0-.116-.506c0-.006-.005-.012-.008-.018L14.642,8.382a1.172,1.172,0,0,0-2.1,0L7.858,17.757l-.007.018a1.165,1.165,0,0,0-.116.506V35.859H2.344v-30A3.519,3.519,0,0,1,5.859,2.344ZM42.891,35.859V10.078h7.031v2.344H48.75a1.172,1.172,0,0,0,0,2.344h1.172v3.516H48.75a1.172,1.172,0,0,0,0,2.344h1.172v3.516H48.75a1.172,1.172,0,0,0,0,2.344h1.172v4.688H48.75a1.172,1.172,0,0,0,0,2.344h1.172v2.344Zm-12.7-11.8a5.868,5.868,0,0,0,1.264-.141c.217,1.394.537,3.86.726,7.253H27.823c.2-3.39.533-5.9.764-7.336A5.867,5.867,0,0,0,30.195,24.06Zm0-2.344a3.52,3.52,0,0,1-3.048-5.27l3.048-5.277,3.046,5.277A3.518,3.518,0,0,1,30.195,21.716Zm-2.479,11.8h4.573c.025.77.042,1.553.05,2.344H27.663C27.671,35.074,27.689,34.291,27.715,33.516Zm-12.95,2.344V19.453h2.344V35.859Zm-4.687,0V19.453h2.344V35.859Zm.724-18.75,2.791-5.583,2.791,5.583ZM40.346,57.656H19.653a3.522,3.522,0,0,1,3.316-2.344H37.031A3.521,3.521,0,0,1,40.346,57.656Zm-6.83-4.687H26.484V47.578h7.031Zm20.625-7.734H5.859a3.519,3.519,0,0,1-3.516-3.516V38.2H57.656v3.516A3.519,3.519,0,0,1,54.141,45.234Zm0,0" fill="#d6cfff"></path><path id="Path_256" data-name="Path 256" d="M214.2,346h-7.031a1.172,1.172,0,0,0,0,2.344H214.2a1.172,1.172,0,0,0,0-2.344Zm0,0" transform="translate(-181.859 -305.453)" fill="#d6cfff"></path></svg>