<?xml version="1.0" encoding="utf-8"?>
<!-- Generator: Adobe Illustrator 23.0.3, SVG Export Plug-In . SVG Version: 6.00 Build 0)  -->
<svg height="50" version="1.1" id="Layer_1" xmlns="http://www.w3.org/2000/svg" xmlns:xlink="http://www.w3.org/1999/xlink" x="0px" y="0px"
	 viewBox="0 0 679 213.43" style="enable-background:new 0 0 679 213.43;" xml:space="preserve">
<style type="text/css">
	.st0{fill:#0099FF;}
	.st1{fill:#000C11;}
	.st2{fill:#FFFFFF;}
</style>
<g>
	<g>
		<path class="st1" d="M275.63,98.83h-26.95V86.06h45.74v12.77l-28.13,31.09h28.96v12.77h-47.64v-12.77L275.63,98.83z"/>
		<path class="st1" d="M332.85,144.45c-8.63,0-15.84-2.96-21.63-8.75c-5.79-5.79-8.63-12.88-8.63-21.28s2.72-15.49,8.15-21.28
			c5.44-5.79,12.29-8.75,20.45-8.75c8.16,0,14.89,2.72,20.33,8.27c5.44,5.55,8.16,12.41,8.16,20.57c0,2.25-0.12,3.78-0.35,4.73
			h-41.96c0.71,4.02,2.48,7.33,5.44,9.81c2.96,2.48,6.5,3.78,10.76,3.78c5.44,0,10.05-2.01,13.83-5.91l7.45,9.81
			c-2.25,2.6-5.32,4.73-9.22,6.38c-3.9,1.65-8.16,2.48-12.77,2.48V144.45z M331.19,96.94c-3.55,0-6.5,1.06-8.86,3.31
			s-4.02,5.2-4.85,8.87h27.3c-0.83-3.9-2.36-6.98-4.73-9.1c-2.36-2.13-5.32-3.19-8.75-3.19L331.19,96.94z"/>
		<path class="st1" d="M386.4,142.92h-14.42V86.3h14.42v5.56c3.66-4.85,8.98-7.21,15.96-7.21c6.5,0,11.7,2.13,15.6,6.38
			c3.9,4.25,5.91,10.05,5.91,17.49v34.28h-14.42v-32.15c0-3.9-1.06-6.98-3.19-9.22c-2.13-2.24-4.85-3.43-8.27-3.43
			c-3.66,0-6.5,1.06-8.51,3.31c-2.01,2.25-3.07,5.32-3.07,9.22V142.92z"/>
		<path class="st1" d="M480.38,103.55c-3.66-3.43-8.15-5.2-13.47-5.2c-4.61,0-8.39,1.54-11.35,4.61c-2.96,3.08-4.37,6.98-4.37,11.59
			s1.54,8.51,4.49,11.7c2.96,3.19,6.74,4.73,11.35,4.73c5.56,0,10.17-1.89,13.83-5.56l7.33,10.64c-2.25,2.48-5.32,4.49-9.22,6.03
			c-3.9,1.54-8.04,2.36-12.41,2.36c-8.39,0-15.48-2.96-21.28-8.75c-5.79-5.79-8.63-12.88-8.63-21.16s2.84-15.37,8.51-21.28
			c5.67-5.91,12.65-8.87,20.92-8.87c9.46,0,16.9,2.84,22.34,8.51l-8.27,10.28L480.38,103.55z"/>
		<path class="st1" d="M537.24,136.65c-4.37,5.2-10.16,7.8-17.26,7.8c-7.68,0-14.07-2.83-19.27-8.51c-5.2-5.67-7.8-12.88-7.8-21.51
			c0-8.63,2.6-15.84,7.8-21.51c5.2-5.67,11.7-8.51,19.5-8.51c7.21,0,13,2.48,17.26,7.33v-5.68h14.54v56.62h-14.54L537.24,136.65z
			 M522.23,130.98c4.25,0,7.8-1.66,10.64-4.85c2.84-3.19,4.25-7.09,4.25-11.7s-1.42-8.51-4.25-11.7c-2.84-3.19-6.38-4.73-10.64-4.73
			c-4.37,0-7.92,1.54-10.76,4.73c-2.84,3.19-4.25,7.09-4.25,11.7s1.42,8.51,4.25,11.7c2.84,3.19,6.5,4.73,10.87,4.73L522.23,130.98z
			"/>
		<path class="st1" d="M580.03,101.55c0,1.77,1.06,3.19,3.19,4.25c2.13,1.07,4.73,2.01,7.68,2.84c2.95,0.83,5.91,1.77,8.86,2.84
			c2.96,1.06,5.56,2.84,7.68,5.44c2.13,2.6,3.19,5.79,3.19,9.69c0,5.08-2.01,9.34-6.15,12.77c-4.14,3.43-9.93,5.08-17.38,5.08
			c-10.4,0-18.32-3.19-23.76-9.57l8.04-9.22c4.37,4.85,9.93,7.21,16.67,7.21c2.72,0,4.85-0.59,6.27-1.65
			c1.42-1.07,2.13-2.48,2.13-4.26c0-1.54-0.71-2.84-2.25-3.9c-1.54-1.06-3.43-1.89-5.67-2.48c-2.25-0.59-4.73-1.42-7.33-2.36
			c-2.6-0.95-5.08-2.01-7.33-3.19c-2.25-1.18-4.14-2.95-5.67-5.32c-1.54-2.36-2.25-5.08-2.25-8.27c0-4.61,1.89-8.63,5.67-11.94
			c3.78-3.31,9.1-4.97,15.96-4.97c10.52,0,17.97,3.07,22.46,9.34l-8.15,8.51c-3.55-4.14-8.16-6.27-13.95-6.27
			c-2.48,0-4.37,0.47-5.79,1.42c-1.42,0.95-2.13,2.25-2.13,3.78V101.55z"/>
		<path class="st1" d="M617.27,86.06h10.05V71.41h14.42v14.66h15.37v12.77h-15.25v24c0,5.32,2.13,7.92,6.5,7.92
			c2.72,0,4.96-0.94,6.62-2.84l6.5,10.76c-3.9,3.78-9.1,5.67-15.48,5.67c-5.79,0-10.4-1.77-13.71-5.44
			c-3.31-3.66-4.96-8.87-4.96-15.6V98.83h-9.93L617.27,86.06z"/>
	</g>
	<g>
		<g>
			<path class="st0" d="M157.35,193.48c-1.74,0-3.43-0.88-4.4-2.47c-1.48-2.43-0.71-5.59,1.71-7.07c5.63-3.44,10.88-7.57,15.6-12.29
				c32.53-32.53,32.53-85.47,0-118.01c-16.5-16.5-38.45-25.17-61.77-24.4c-2.8,0.06-5.22-2.13-5.31-4.97
				c-0.09-2.84,2.13-5.22,4.97-5.31c25.82-0.85,51.12,9.14,69.39,27.4c36.55,36.55,36.55,96.02,0,132.56
				c-5.3,5.29-11.19,9.94-17.52,13.8C159.19,193.24,158.26,193.48,157.35,193.48z"/>
		</g>
		<g>
			<path class="st0" d="M23.21,127.66c-2.59,0-4.81-1.95-5.11-4.58c-3.17-28.5,6.62-56.46,26.87-76.71
				C55.5,35.86,67.94,28.19,81.97,23.59c2.7-0.89,5.61,0.58,6.49,3.28c0.89,2.7-0.59,5.61-3.28,6.49
				C72.7,37.46,61.62,44.28,52.26,53.65c-18.03,18.03-26.75,42.93-23.92,68.3c0.31,2.82-1.72,5.37-4.54,5.68
				C23.6,127.65,23.4,127.66,23.21,127.66z"/>
		</g>
		<g>
			<path class="st0" d="M44.59,176.14c-1.43,0-2.85-0.59-3.87-1.75c-6.95-7.92-12.46-16.88-16.39-26.61
				c-1.06-2.64,0.21-5.63,2.85-6.7c2.64-1.06,5.63,0.21,6.7,2.85c3.49,8.66,8.4,16.62,14.58,23.67c1.87,2.14,1.66,5.39-0.48,7.26
				C47.01,175.72,45.8,176.14,44.59,176.14z"/>
		</g>
		<g>
			<path class="st0" d="M66.92,194.52c-0.87,0-1.76-0.22-2.57-0.69c-2.17-1.26-4.32-2.62-6.38-4.05c-2.34-1.62-2.92-4.82-1.3-7.16
				c1.62-2.34,4.82-2.92,7.16-1.3c1.83,1.27,3.74,2.48,5.67,3.6c2.46,1.42,3.3,4.57,1.88,7.03C70.43,193.6,68.7,194.52,66.92,194.52
				z"/>
		</g>
		<g>
			<path class="st0" d="M141.94,182.07c-1.92,0-3.76-1.08-4.65-2.93c-1.22-2.56-0.14-5.64,2.43-6.86
				c6.76-3.23,12.9-7.57,18.25-12.92c25.75-25.75,25.75-67.66,0-93.41c-25.75-25.75-67.66-25.76-93.41,0
				c-5.61,5.61-10.11,12.07-13.37,19.21c-1.18,2.59-4.24,3.72-6.82,2.54c-2.58-1.18-3.72-4.24-2.54-6.82
				c3.78-8.26,8.98-15.73,15.45-22.21c29.77-29.76,78.2-29.76,107.96,0c29.77,29.77,29.77,78.2,0,107.96
				c-6.18,6.18-13.28,11.2-21.1,14.93C143.44,181.91,142.68,182.07,141.94,182.07z"/>
		</g>
		<g>
			<path class="st0" d="M46.51,147.44c-1.95,0-3.82-1.11-4.68-3.01c-5.51-12.04-7.79-25.41-6.6-38.67c0.26-2.83,2.77-4.93,5.59-4.66
				c2.83,0.25,4.92,2.76,4.66,5.59c-1.03,11.47,0.94,23.04,5.71,33.46c1.18,2.58,0.05,5.64-2.54,6.82
				C47.96,147.29,47.23,147.44,46.51,147.44z"/>
		</g>
		<g>
			<path class="st0" d="M82.03,182.74c-0.71,0-1.42-0.15-2.11-0.45c-8.43-3.79-16.05-9.06-22.64-15.65
				c-0.69-0.69-1.36-1.38-2.01-2.09c-1.93-2.08-1.81-5.34,0.28-7.27c2.08-1.93,5.34-1.81,7.27,0.28c0.57,0.61,1.15,1.21,1.74,1.81
				c5.7,5.7,12.29,10.26,19.58,13.54c2.59,1.17,3.75,4.21,2.58,6.8C85.87,181.61,83.99,182.74,82.03,182.74z"/>
		</g>
		<g>
			<path class="st0" d="M159.26,138.24c-0.67,0-1.35-0.13-2.01-0.41c-2.61-1.11-3.83-4.13-2.72-6.75
				c7.55-17.75,3.62-38.03-10.02-51.67c-16.26-16.26-42.47-18.29-60.98-4.72c-2.29,1.68-5.51,1.18-7.19-1.11
				c-1.68-2.29-1.18-5.51,1.11-7.19c22.57-16.54,54.53-14.07,74.34,5.75c16.62,16.62,21.42,41.34,12.22,62.98
				C163.17,137.06,161.26,138.24,159.26,138.24z"/>
		</g>
		<g>
			<path class="st0" d="M65.72,143.25c-1.8,0-3.55-0.95-4.49-2.63c-9.38-16.77-9.75-36.99-0.98-54.1c1.3-2.53,4.4-3.53,6.93-2.23
				c2.53,1.3,3.53,4.4,2.23,6.93c-7.19,14.03-6.89,30.62,0.8,44.38c1.39,2.48,0.5,5.61-1.98,7
				C67.44,143.04,66.57,143.25,65.72,143.25z"/>
		</g>
	</g>
</g>
</svg>
